<svg width="108" height="36" viewBox="0 0 108 36" fill="none" xmlns="http://www.w3.org/2000/svg">
<path d="M13.12 26L7.864 16.46H6.388V26H0.232V0.727999H10.564C12.556 0.727999 14.248 1.076 15.64 1.772C17.056 2.468 18.112 3.428 18.808 4.652C19.504 5.852 19.852 7.196 19.852 8.684C19.852 10.364 19.372 11.864 18.412 13.184C17.476 14.504 16.084 15.44 14.236 15.992L20.068 26H13.12ZM6.388 12.104H10.204C11.332 12.104 12.172 11.828 12.724 11.276C13.3 10.724 13.588 9.944 13.588 8.936C13.588 7.976 13.3 7.22 12.724 6.668C12.172 6.116 11.332 5.84 10.204 5.84H6.388V12.104Z" fill="#A92A1D"/>
<path d="M40.4924 8.72C40.0364 7.88 39.3764 7.244 38.5124 6.812C37.6724 6.356 36.6764 6.128 35.5244 6.128C33.5324 6.128 31.9364 6.788 30.7364 8.108C29.5364 9.404 28.9364 11.144 28.9364 13.328C28.9364 15.656 29.5604 17.48 30.8084 18.8C32.0804 20.096 33.8204 20.744 36.0284 20.744C37.5404 20.744 38.8124 20.36 39.8444 19.592C40.9004 18.824 41.6684 17.72 42.1484 16.28H34.3364V11.744H47.7284V17.468C47.2724 19.004 46.4924 20.432 45.3884 21.752C44.3084 23.072 42.9284 24.14 41.2484 24.956C39.5684 25.772 37.6724 26.18 35.5604 26.18C33.0644 26.18 30.8324 25.64 28.8644 24.56C26.9204 23.456 25.3964 21.932 24.2924 19.988C23.2124 18.044 22.6724 15.824 22.6724 13.328C22.6724 10.832 23.2124 8.612 24.2924 6.668C25.3964 4.7 26.9204 3.176 28.8644 2.096C30.8084 0.991999 33.0284 0.439999 35.5244 0.439999C38.5484 0.439999 41.0924 1.172 43.1564 2.636C45.2444 4.1 46.6244 6.128 47.2964 8.72H40.4924ZM71.6583 5.912L59.0583 35.54H52.4343L57.0423 25.316L48.8702 5.912H55.7463L60.3903 18.476L64.9983 5.912H71.6583ZM99.5163 5.696C102.012 5.696 103.992 6.452 105.456 7.964C106.944 9.476 107.688 11.576 107.688 14.264V26H101.568V15.092C101.568 13.796 101.22 12.8 100.524 12.104C99.8523 11.384 98.9163 11.024 97.7163 11.024C96.5163 11.024 95.5683 11.384 94.8723 12.104C94.2003 12.8 93.8643 13.796 93.8643 15.092V26H87.7443V15.092C87.7443 13.796 87.3963 12.8 86.7003 12.104C86.0283 11.384 85.0923 11.024 83.8923 11.024C82.6923 11.024 81.7443 11.384 81.0483 12.104C80.3763 12.8 80.0403 13.796 80.0403 15.092V26H73.8843V5.912H80.0403V8.432C80.6643 7.592 81.4803 6.932 82.4883 6.452C83.4963 5.948 84.6363 5.696 85.9083 5.696C87.4203 5.696 88.7643 6.02 89.9403 6.668C91.1403 7.316 92.0763 8.24 92.7483 9.44C93.4443 8.336 94.3923 7.436 95.5923 6.74C96.7923 6.044 98.1003 5.696 99.5163 5.696Z" fill="white"/>
</svg>
